<svg id="visual" viewBox="0 0 960 300" width="960" height="300" xmlns="http://www.w3.org/2000/svg" xmlns:xlink="http://www.w3.org/1999/xlink" version="1.1"><path d="M0 106L137 92L274 83L411 103L549 97L686 121L823 94L960 81L960 0L823 0L686 0L549 0L411 0L274 0L137 0L0 0Z" fill="#ffffff"></path><path d="M0 72L137 66L274 81L411 60L549 102L686 97L823 67L960 102L960 0L823 0L686 0L549 0L411 0L274 0L137 0L0 0Z" fill="#ffe7c9"></path><path d="M0 65L137 57L274 50L411 65L549 59L686 79L823 58L960 48L960 0L823 0L686 0L549 0L411 0L274 0L137 0L0 0Z" fill="#ffd094"></path><path d="M0 43L137 52L274 29L411 55L549 31L686 46L823 34L960 31L960 0L823 0L686 0L549 0L411 0L274 0L137 0L0 0Z" fill="#ffba5d"></path><path d="M0 26L137 28L274 19L411 17L549 16L686 31L823 31L960 22L960 0L823 0L686 0L549 0L411 0L274 0L137 0L0 0Z" fill="#ffa319"></path></svg>