<svg id="visual" viewBox="0 0 960 300" width="960" height="300" xmlns="http://www.w3.org/2000/svg" xmlns:xlink="http://www.w3.org/1999/xlink" version="1.1"><path d="M0 149L8.8 152.7C17.7 156.3 35.3 163.7 53.2 168.8C71 174 89 177 106.8 176.7C124.7 176.3 142.3 172.7 160 170.8C177.7 169 195.3 169 213.2 167.7C231 166.3 249 163.7 266.8 160.8C284.7 158 302.3 155 320 154.3C337.7 153.7 355.3 155.3 373.2 158.8C391 162.3 409 167.7 426.8 173.3C444.7 179 462.3 185 480 185.7C497.7 186.3 515.3 181.7 533.2 174.7C551 167.7 569 158.3 586.8 161C604.7 163.7 622.3 178.3 640 178C657.7 177.7 675.3 162.3 693.2 157.2C711 152 729 157 746.8 156.8C764.7 156.7 782.3 151.3 800 157C817.7 162.7 835.3 179.3 853.2 183.7C871 188 889 180 906.8 178.2C924.7 176.3 942.3 180.7 951.2 182.8L960 185L960 301L951.2 301C942.3 301 924.7 301 906.8 301C889 301 871 301 853.2 301C835.3 301 817.7 301 800 301C782.3 301 764.7 301 746.8 301C729 301 711 301 693.2 301C675.3 301 657.7 301 640 301C622.3 301 604.7 301 586.8 301C569 301 551 301 533.2 301C515.3 301 497.7 301 480 301C462.3 301 444.7 301 426.8 301C409 301 391 301 373.2 301C355.3 301 337.7 301 320 301C302.3 301 284.7 301 266.8 301C249 301 231 301 213.2 301C195.3 301 177.7 301 160 301C142.3 301 124.7 301 106.8 301C89 301 71 301 53.2 301C35.3 301 17.7 301 8.8 301L0 301Z" fill="#eeeeee"></path><path d="M0 180L8.8 182.7C17.7 185.3 35.3 190.7 53.2 188C71 185.3 89 174.7 106.8 173.3C124.7 172 142.3 180 160 182.2C177.7 184.3 195.3 180.7 213.2 176C231 171.3 249 165.7 266.8 163.8C284.7 162 302.3 164 320 168.7C337.7 173.3 355.3 180.7 373.2 184.5C391 188.3 409 188.7 426.8 186.2C444.7 183.7 462.3 178.3 480 180.2C497.7 182 515.3 191 533.2 193.5C551 196 569 192 586.8 192C604.7 192 622.3 196 640 196.8C657.7 197.7 675.3 195.3 693.2 194.7C711 194 729 195 746.8 191C764.7 187 782.3 178 800 171.8C817.7 165.7 835.3 162.3 853.2 166.3C871 170.3 889 181.7 906.8 189C924.7 196.3 942.3 199.7 951.2 201.3L960 203L960 301L951.2 301C942.3 301 924.7 301 906.8 301C889 301 871 301 853.2 301C835.3 301 817.7 301 800 301C782.3 301 764.7 301 746.8 301C729 301 711 301 693.2 301C675.3 301 657.7 301 640 301C622.3 301 604.7 301 586.8 301C569 301 551 301 533.2 301C515.3 301 497.7 301 480 301C462.3 301 444.7 301 426.8 301C409 301 391 301 373.2 301C355.3 301 337.7 301 320 301C302.3 301 284.7 301 266.8 301C249 301 231 301 213.2 301C195.3 301 177.7 301 160 301C142.3 301 124.7 301 106.8 301C89 301 71 301 53.2 301C35.3 301 17.7 301 8.8 301L0 301Z" fill="#f1f1f1"></path><path d="M0 207L8.8 204.2C17.7 201.3 35.3 195.7 53.2 194.2C71 192.7 89 195.3 106.8 199.2C124.7 203 142.3 208 160 203.7C177.7 199.3 195.3 185.7 213.2 184.7C231 183.7 249 195.3 266.8 201.5C284.7 207.7 302.3 208.3 320 207.5C337.7 206.7 355.3 204.3 373.2 203.2C391 202 409 202 426.8 200.3C444.7 198.7 462.3 195.3 480 197.5C497.7 199.7 515.3 207.3 533.2 209.2C551 211 569 207 586.8 206.3C604.7 205.7 622.3 208.3 640 203.2C657.7 198 675.3 185 693.2 181.7C711 178.3 729 184.7 746.8 189C764.7 193.3 782.3 195.7 800 197.5C817.7 199.3 835.3 200.7 853.2 196.5C871 192.3 889 182.7 906.8 181.5C924.7 180.3 942.3 187.7 951.2 191.3L960 195L960 301L951.2 301C942.3 301 924.7 301 906.8 301C889 301 871 301 853.2 301C835.3 301 817.7 301 800 301C782.3 301 764.7 301 746.8 301C729 301 711 301 693.2 301C675.3 301 657.7 301 640 301C622.3 301 604.7 301 586.8 301C569 301 551 301 533.2 301C515.3 301 497.7 301 480 301C462.3 301 444.7 301 426.8 301C409 301 391 301 373.2 301C355.3 301 337.7 301 320 301C302.3 301 284.7 301 266.8 301C249 301 231 301 213.2 301C195.3 301 177.7 301 160 301C142.3 301 124.7 301 106.8 301C89 301 71 301 53.2 301C35.3 301 17.7 301 8.8 301L0 301Z" fill="#f5f5f5"></path><path d="M0 224L8.8 220.8C17.7 217.7 35.3 211.3 53.2 210.7C71 210 89 215 106.8 215.3C124.7 215.7 142.3 211.3 160 209.7C177.7 208 195.3 209 213.2 206.5C231 204 249 198 266.8 197.8C284.7 197.7 302.3 203.3 320 205.3C337.7 207.3 355.3 205.7 373.2 203C391 200.3 409 196.7 426.8 199.8C444.7 203 462.3 213 480 216.2C497.7 219.3 515.3 215.7 533.2 216C551 216.3 569 220.7 586.8 218.5C604.7 216.3 622.3 207.7 640 205.2C657.7 202.7 675.3 206.3 693.2 209.5C711 212.7 729 215.3 746.8 215C764.7 214.7 782.3 211.3 800 205.8C817.7 200.3 835.3 192.7 853.2 190C871 187.3 889 189.7 906.8 192C924.7 194.3 942.3 196.7 951.2 197.8L960 199L960 301L951.2 301C942.3 301 924.7 301 906.8 301C889 301 871 301 853.2 301C835.3 301 817.7 301 800 301C782.3 301 764.7 301 746.8 301C729 301 711 301 693.2 301C675.3 301 657.7 301 640 301C622.3 301 604.7 301 586.8 301C569 301 551 301 533.2 301C515.3 301 497.7 301 480 301C462.3 301 444.7 301 426.8 301C409 301 391 301 373.2 301C355.3 301 337.7 301 320 301C302.3 301 284.7 301 266.8 301C249 301 231 301 213.2 301C195.3 301 177.7 301 160 301C142.3 301 124.7 301 106.8 301C89 301 71 301 53.2 301C35.3 301 17.7 301 8.8 301L0 301Z" fill="#f8f8f8"></path><path d="M0 212L8.8 210.7C17.7 209.3 35.3 206.7 53.2 205C71 203.3 89 202.7 106.8 204.2C124.7 205.7 142.3 209.3 160 213.3C177.7 217.3 195.3 221.7 213.2 221.7C231 221.7 249 217.3 266.8 216C284.7 214.7 302.3 216.3 320 219.3C337.7 222.3 355.3 226.7 373.2 225C391 223.3 409 215.7 426.8 214C444.7 212.3 462.3 216.7 480 218.5C497.7 220.3 515.3 219.7 533.2 216.2C551 212.7 569 206.3 586.8 208.5C604.7 210.7 622.3 221.3 640 226.8C657.7 232.3 675.3 232.7 693.2 232.7C711 232.7 729 232.3 746.8 232.7C764.7 233 782.3 234 800 229.2C817.7 224.3 835.3 213.7 853.2 210C871 206.3 889 209.7 906.8 211.3C924.7 213 942.3 213 951.2 213L960 213L960 301L951.2 301C942.3 301 924.7 301 906.8 301C889 301 871 301 853.2 301C835.3 301 817.7 301 800 301C782.3 301 764.7 301 746.8 301C729 301 711 301 693.2 301C675.3 301 657.7 301 640 301C622.3 301 604.7 301 586.8 301C569 301 551 301 533.2 301C515.3 301 497.7 301 480 301C462.3 301 444.7 301 426.8 301C409 301 391 301 373.2 301C355.3 301 337.7 301 320 301C302.3 301 284.7 301 266.8 301C249 301 231 301 213.2 301C195.3 301 177.7 301 160 301C142.3 301 124.7 301 106.8 301C89 301 71 301 53.2 301C35.3 301 17.7 301 8.8 301L0 301Z" fill="#fcfcfc"></path><path d="M0 226L8.8 225C17.7 224 35.3 222 53.2 222C71 222 89 224 106.8 225.3C124.7 226.7 142.3 227.3 160 227.5C177.7 227.7 195.3 227.3 213.2 229.3C231 231.3 249 235.7 266.8 238.5C284.7 241.3 302.3 242.7 320 239.8C337.7 237 355.3 230 373.2 224.8C391 219.7 409 216.3 426.8 215C444.7 213.7 462.3 214.3 480 216.7C497.7 219 515.3 223 533.2 223.7C551 224.3 569 221.7 586.8 220.8C604.7 220 622.3 221 640 220.2C657.7 219.3 675.3 216.7 693.2 217.8C711 219 729 224 746.8 224.3C764.7 224.7 782.3 220.3 800 221C817.7 221.7 835.3 227.3 853.2 226.7C871 226 889 219 906.8 218.3C924.7 217.7 942.3 223.3 951.2 226.2L960 229L960 301L951.2 301C942.3 301 924.7 301 906.8 301C889 301 871 301 853.2 301C835.3 301 817.7 301 800 301C782.3 301 764.7 301 746.8 301C729 301 711 301 693.2 301C675.3 301 657.7 301 640 301C622.3 301 604.7 301 586.8 301C569 301 551 301 533.2 301C515.3 301 497.7 301 480 301C462.3 301 444.7 301 426.8 301C409 301 391 301 373.2 301C355.3 301 337.7 301 320 301C302.3 301 284.7 301 266.8 301C249 301 231 301 213.2 301C195.3 301 177.7 301 160 301C142.3 301 124.7 301 106.8 301C89 301 71 301 53.2 301C35.3 301 17.7 301 8.8 301L0 301Z" fill="#ffffff"></path><path d="M0 229L8.8 231C17.7 233 35.3 237 53.2 237.5C71 238 89 235 106.8 233.2C124.7 231.3 142.3 230.7 160 232.5C177.7 234.3 195.3 238.7 213.2 240.7C231 242.7 249 242.3 266.8 244.2C284.7 246 302.3 250 320 247.7C337.7 245.3 355.3 236.7 373.2 235.3C391 234 409 240 426.8 239.7C444.7 239.3 462.3 232.7 480 232C497.7 231.3 515.3 236.7 533.2 238.8C551 241 569 240 586.8 237C604.7 234 622.3 229 640 227.2C657.7 225.3 675.3 226.7 693.2 230.3C711 234 729 240 746.8 241C764.7 242 782.3 238 800 237C817.7 236 835.3 238 853.2 236.3C871 234.7 889 229.3 906.8 228.5C924.7 227.7 942.3 231.3 951.2 233.2L960 235L960 301L951.2 301C942.3 301 924.7 301 906.8 301C889 301 871 301 853.2 301C835.3 301 817.7 301 800 301C782.3 301 764.7 301 746.8 301C729 301 711 301 693.2 301C675.3 301 657.7 301 640 301C622.3 301 604.7 301 586.8 301C569 301 551 301 533.2 301C515.3 301 497.7 301 480 301C462.3 301 444.7 301 426.8 301C409 301 391 301 373.2 301C355.3 301 337.7 301 320 301C302.3 301 284.7 301 266.8 301C249 301 231 301 213.2 301C195.3 301 177.7 301 160 301C142.3 301 124.7 301 106.8 301C89 301 71 301 53.2 301C35.3 301 17.7 301 8.8 301L0 301Z" fill="#ffffff"></path><path d="M0 258L8.8 257.5C17.7 257 35.3 256 53.2 254.5C71 253 89 251 106.8 251.3C124.7 251.7 142.3 254.3 160 256.7C177.7 259 195.3 261 213.2 260.3C231 259.7 249 256.3 266.8 252.3C284.7 248.3 302.3 243.7 320 244C337.7 244.3 355.3 249.7 373.2 250.2C391 250.7 409 246.3 426.8 244.8C444.7 243.3 462.3 244.7 480 245C497.7 245.3 515.3 244.7 533.2 244.3C551 244 569 244 586.8 246.3C604.7 248.7 622.3 253.3 640 253.3C657.7 253.3 675.3 248.7 693.2 246.5C711 244.3 729 244.7 746.8 245.8C764.7 247 782.3 249 800 251.2C817.7 253.3 835.3 255.7 853.2 255.2C871 254.7 889 251.3 906.8 251.7C924.7 252 942.3 256 951.2 258L960 260L960 301L951.2 301C942.3 301 924.7 301 906.8 301C889 301 871 301 853.2 301C835.3 301 817.7 301 800 301C782.3 301 764.7 301 746.8 301C729 301 711 301 693.2 301C675.3 301 657.7 301 640 301C622.3 301 604.7 301 586.8 301C569 301 551 301 533.2 301C515.3 301 497.7 301 480 301C462.3 301 444.7 301 426.8 301C409 301 391 301 373.2 301C355.3 301 337.7 301 320 301C302.3 301 284.7 301 266.8 301C249 301 231 301 213.2 301C195.3 301 177.7 301 160 301C142.3 301 124.7 301 106.8 301C89 301 71 301 53.2 301C35.3 301 17.7 301 8.8 301L0 301Z" fill="#ffffff"></path><path d="M0 271L8.8 270.8C17.7 270.7 35.3 270.3 53.2 269.5C71 268.7 89 267.3 106.8 266C124.7 264.7 142.3 263.3 160 262.7C177.7 262 195.3 262 213.2 260.7C231 259.3 249 256.7 266.8 257.7C284.7 258.7 302.3 263.3 320 266.2C337.7 269 355.3 270 373.2 267.5C391 265 409 259 426.8 256.8C444.7 254.7 462.3 256.3 480 256.5C497.7 256.7 515.3 255.3 533.2 257.2C551 259 569 264 586.8 265.3C604.7 266.7 622.3 264.3 640 262.8C657.7 261.3 675.3 260.7 693.2 262C711 263.3 729 266.7 746.8 266C764.7 265.3 782.3 260.7 800 257.5C817.7 254.3 835.3 252.7 853.2 255.2C871 257.7 889 264.3 906.8 265C924.7 265.7 942.3 260.3 951.2 257.7L960 255L960 301L951.2 301C942.3 301 924.7 301 906.8 301C889 301 871 301 853.2 301C835.3 301 817.7 301 800 301C782.3 301 764.7 301 746.8 301C729 301 711 301 693.2 301C675.3 301 657.7 301 640 301C622.3 301 604.7 301 586.8 301C569 301 551 301 533.2 301C515.3 301 497.7 301 480 301C462.3 301 444.7 301 426.8 301C409 301 391 301 373.2 301C355.3 301 337.7 301 320 301C302.3 301 284.7 301 266.8 301C249 301 231 301 213.2 301C195.3 301 177.7 301 160 301C142.3 301 124.7 301 106.8 301C89 301 71 301 53.2 301C35.3 301 17.7 301 8.8 301L0 301Z" fill="#ffffff"></path><path d="M0 277L8.8 275.7C17.7 274.3 35.3 271.7 53.2 269.8C71 268 89 267 106.8 267.2C124.7 267.3 142.3 268.7 160 269C177.7 269.3 195.3 268.7 213.2 269.7C231 270.7 249 273.3 266.8 274.3C284.7 275.3 302.3 274.7 320 274C337.7 273.3 355.3 272.7 373.2 273C391 273.3 409 274.7 426.8 275.3C444.7 276 462.3 276 480 274.5C497.7 273 515.3 270 533.2 270.3C551 270.7 569 274.3 586.8 273.8C604.7 273.3 622.3 268.7 640 269C657.7 269.3 675.3 274.7 693.2 275.8C711 277 729 274 746.8 273.7C764.7 273.3 782.3 275.7 800 275.3C817.7 275 835.3 272 853.2 271.5C871 271 889 273 906.8 273C924.7 273 942.3 271 951.2 270L960 269L960 301L951.2 301C942.3 301 924.7 301 906.8 301C889 301 871 301 853.2 301C835.3 301 817.7 301 800 301C782.3 301 764.7 301 746.8 301C729 301 711 301 693.2 301C675.3 301 657.7 301 640 301C622.3 301 604.7 301 586.8 301C569 301 551 301 533.2 301C515.3 301 497.7 301 480 301C462.3 301 444.7 301 426.8 301C409 301 391 301 373.2 301C355.3 301 337.7 301 320 301C302.3 301 284.7 301 266.8 301C249 301 231 301 213.2 301C195.3 301 177.7 301 160 301C142.3 301 124.7 301 106.8 301C89 301 71 301 53.2 301C35.3 301 17.7 301 8.8 301L0 301Z" fill="#ffffff"></path><path d="M0 291L8.8 289C17.7 287 35.3 283 53.2 281.7C71 280.3 89 281.7 106.8 282C124.7 282.3 142.3 281.7 160 280.8C177.7 280 195.3 279 213.2 278.7C231 278.3 249 278.7 266.8 280.5C284.7 282.3 302.3 285.7 320 286C337.7 286.3 355.3 283.7 373.2 283.5C391 283.3 409 285.7 426.8 285.7C444.7 285.7 462.3 283.3 480 283.8C497.7 284.3 515.3 287.7 533.2 287C551 286.3 569 281.7 586.8 279.7C604.7 277.7 622.3 278.3 640 279.2C657.7 280 675.3 281 693.2 281.7C711 282.3 729 282.7 746.8 282.2C764.7 281.7 782.3 280.3 800 281.7C817.7 283 835.3 287 853.2 289C871 291 889 291 906.8 289C924.7 287 942.3 283 951.2 281L960 279L960 301L951.2 301C942.3 301 924.7 301 906.8 301C889 301 871 301 853.2 301C835.3 301 817.7 301 800 301C782.3 301 764.7 301 746.8 301C729 301 711 301 693.2 301C675.3 301 657.7 301 640 301C622.3 301 604.7 301 586.8 301C569 301 551 301 533.2 301C515.3 301 497.7 301 480 301C462.3 301 444.7 301 426.8 301C409 301 391 301 373.2 301C355.3 301 337.7 301 320 301C302.3 301 284.7 301 266.8 301C249 301 231 301 213.2 301C195.3 301 177.7 301 160 301C142.3 301 124.7 301 106.8 301C89 301 71 301 53.2 301C35.3 301 17.7 301 8.8 301L0 301Z" fill="#ffffff"></path></svg>