<svg id="visual" viewBox="0 0 960 300" width="960" height="300" xmlns="http://www.w3.org/2000/svg" xmlns:xlink="http://www.w3.org/1999/xlink" version="1.1"><path d="M0 108L12.3 110.7C24.7 113.3 49.3 118.7 74 115.3C98.7 112 123.3 100 148 97.7C172.7 95.3 197.3 102.7 221.8 100.3C246.3 98 270.7 86 295.2 92.3C319.7 98.7 344.3 123.3 369 124C393.7 124.7 418.3 101.3 443 94.5C467.7 87.7 492.3 97.3 517 103.8C541.7 110.3 566.3 113.7 591 111C615.7 108.3 640.3 99.7 664.8 96.3C689.3 93 713.7 95 738.2 101.2C762.7 107.3 787.3 117.7 812 127C836.7 136.3 861.3 144.7 886 143.7C910.7 142.7 935.3 132.3 947.7 127.2L960 122L960 0L947.7 0C935.3 0 910.7 0 886 0C861.3 0 836.7 0 812 0C787.3 0 762.7 0 738.2 0C713.7 0 689.3 0 664.8 0C640.3 0 615.7 0 591 0C566.3 0 541.7 0 517 0C492.3 0 467.7 0 443 0C418.3 0 393.7 0 369 0C344.3 0 319.7 0 295.2 0C270.7 0 246.3 0 221.8 0C197.3 0 172.7 0 148 0C123.3 0 98.7 0 74 0C49.3 0 24.7 0 12.3 0L0 0Z" fill="#646566"></path><path d="M0 88L12.3 96C24.7 104 49.3 120 74 118C98.7 116 123.3 96 148 86.2C172.7 76.3 197.3 76.7 221.8 74.7C246.3 72.7 270.7 68.3 295.2 75.8C319.7 83.3 344.3 102.7 369 107.7C393.7 112.7 418.3 103.3 443 98.3C467.7 93.3 492.3 92.7 517 89.2C541.7 85.7 566.3 79.3 591 84.8C615.7 90.3 640.3 107.7 664.8 106.2C689.3 104.7 713.7 84.3 738.2 82.3C762.7 80.3 787.3 96.7 812 106.8C836.7 117 861.3 121 886 121.5C910.7 122 935.3 119 947.7 117.5L960 116L960 0L947.7 0C935.3 0 910.7 0 886 0C861.3 0 836.7 0 812 0C787.3 0 762.7 0 738.2 0C713.7 0 689.3 0 664.8 0C640.3 0 615.7 0 591 0C566.3 0 541.7 0 517 0C492.3 0 467.7 0 443 0C418.3 0 393.7 0 369 0C344.3 0 319.7 0 295.2 0C270.7 0 246.3 0 221.8 0C197.3 0 172.7 0 148 0C123.3 0 98.7 0 74 0C49.3 0 24.7 0 12.3 0L0 0Z" fill="#5e5f60"></path><path d="M0 112L12.3 113.2C24.7 114.3 49.3 116.7 74 115C98.7 113.3 123.3 107.7 148 104.5C172.7 101.3 197.3 100.7 221.8 98.3C246.3 96 270.7 92 295.2 88.5C319.7 85 344.3 82 369 76.8C393.7 71.7 418.3 64.3 443 60.8C467.7 57.3 492.3 57.7 517 67.8C541.7 78 566.3 98 591 99.7C615.7 101.3 640.3 84.7 664.8 81.8C689.3 79 713.7 90 738.2 91.7C762.7 93.3 787.3 85.7 812 84.5C836.7 83.3 861.3 88.7 886 95.3C910.7 102 935.3 110 947.7 114L960 118L960 0L947.7 0C935.3 0 910.7 0 886 0C861.3 0 836.7 0 812 0C787.3 0 762.7 0 738.2 0C713.7 0 689.3 0 664.8 0C640.3 0 615.7 0 591 0C566.3 0 541.7 0 517 0C492.3 0 467.7 0 443 0C418.3 0 393.7 0 369 0C344.3 0 319.7 0 295.2 0C270.7 0 246.3 0 221.8 0C197.3 0 172.7 0 148 0C123.3 0 98.7 0 74 0C49.3 0 24.7 0 12.3 0L0 0Z" fill="#58595a"></path><path d="M0 74L12.3 74.7C24.7 75.3 49.3 76.7 74 72.7C98.7 68.7 123.3 59.3 148 56.3C172.7 53.3 197.3 56.7 221.8 64.5C246.3 72.3 270.7 84.7 295.2 85.7C319.7 86.7 344.3 76.3 369 73.8C393.7 71.3 418.3 76.7 443 81C467.7 85.3 492.3 88.7 517 82C541.7 75.3 566.3 58.7 591 54.7C615.7 50.7 640.3 59.3 664.8 62C689.3 64.7 713.7 61.3 738.2 62.7C762.7 64 787.3 70 812 76.5C836.7 83 861.3 90 886 91.8C910.7 93.7 935.3 90.3 947.7 88.7L960 87L960 0L947.7 0C935.3 0 910.7 0 886 0C861.3 0 836.7 0 812 0C787.3 0 762.7 0 738.2 0C713.7 0 689.3 0 664.8 0C640.3 0 615.7 0 591 0C566.3 0 541.7 0 517 0C492.3 0 467.7 0 443 0C418.3 0 393.7 0 369 0C344.3 0 319.7 0 295.2 0C270.7 0 246.3 0 221.8 0C197.3 0 172.7 0 148 0C123.3 0 98.7 0 74 0C49.3 0 24.7 0 12.3 0L0 0Z" fill="#525354"></path><path d="M0 55L12.3 58.7C24.7 62.3 49.3 69.7 74 73.3C98.7 77 123.3 77 148 69.2C172.7 61.3 197.3 45.7 221.8 39.5C246.3 33.3 270.7 36.7 295.2 44C319.7 51.3 344.3 62.7 369 67.7C393.7 72.7 418.3 71.3 443 66.7C467.7 62 492.3 54 517 51.8C541.7 49.7 566.3 53.3 591 56.2C615.7 59 640.3 61 664.8 56.8C689.3 52.7 713.7 42.3 738.2 37.2C762.7 32 787.3 32 812 35.2C836.7 38.3 861.3 44.7 886 46.3C910.7 48 935.3 45 947.7 43.5L960 42L960 0L947.7 0C935.3 0 910.7 0 886 0C861.3 0 836.7 0 812 0C787.3 0 762.7 0 738.2 0C713.7 0 689.3 0 664.8 0C640.3 0 615.7 0 591 0C566.3 0 541.7 0 517 0C492.3 0 467.7 0 443 0C418.3 0 393.7 0 369 0C344.3 0 319.7 0 295.2 0C270.7 0 246.3 0 221.8 0C197.3 0 172.7 0 148 0C123.3 0 98.7 0 74 0C49.3 0 24.7 0 12.3 0L0 0Z" fill="#4c4d4e"></path><path d="M0 21L12.3 24.3C24.7 27.7 49.3 34.3 74 34.7C98.7 35 123.3 29 148 25.5C172.7 22 197.3 21 221.8 21.7C246.3 22.3 270.7 24.7 295.2 29.7C319.7 34.7 344.3 42.3 369 44.3C393.7 46.3 418.3 42.7 443 41.8C467.7 41 492.3 43 517 41.5C541.7 40 566.3 35 591 36.5C615.7 38 640.3 46 664.8 49.2C689.3 52.3 713.7 50.7 738.2 44.5C762.7 38.3 787.3 27.7 812 27.5C836.7 27.3 861.3 37.7 886 43.5C910.7 49.3 935.3 50.7 947.7 51.3L960 52L960 0L947.7 0C935.3 0 910.7 0 886 0C861.3 0 836.7 0 812 0C787.3 0 762.7 0 738.2 0C713.7 0 689.3 0 664.8 0C640.3 0 615.7 0 591 0C566.3 0 541.7 0 517 0C492.3 0 467.7 0 443 0C418.3 0 393.7 0 369 0C344.3 0 319.7 0 295.2 0C270.7 0 246.3 0 221.8 0C197.3 0 172.7 0 148 0C123.3 0 98.7 0 74 0C49.3 0 24.7 0 12.3 0L0 0Z" fill="#464748"></path><path d="M0 8L12.3 12C24.7 16 49.3 24 74 25.8C98.7 27.7 123.3 23.3 148 20.3C172.7 17.3 197.3 15.7 221.8 18.5C246.3 21.3 270.7 28.7 295.2 31.2C319.7 33.7 344.3 31.3 369 28.3C393.7 25.3 418.3 21.7 443 20.3C467.7 19 492.3 20 517 22.2C541.7 24.3 566.3 27.7 591 29.2C615.7 30.7 640.3 30.3 664.8 28.5C689.3 26.7 713.7 23.3 738.2 22.8C762.7 22.3 787.3 24.7 812 27C836.7 29.3 861.3 31.7 886 33.3C910.7 35 935.3 36 947.7 36.5L960 37L960 0L947.7 0C935.3 0 910.7 0 886 0C861.3 0 836.7 0 812 0C787.3 0 762.7 0 738.2 0C713.7 0 689.3 0 664.8 0C640.3 0 615.7 0 591 0C566.3 0 541.7 0 517 0C492.3 0 467.7 0 443 0C418.3 0 393.7 0 369 0C344.3 0 319.7 0 295.2 0C270.7 0 246.3 0 221.8 0C197.3 0 172.7 0 148 0C123.3 0 98.7 0 74 0C49.3 0 24.7 0 12.3 0L0 0Z" fill="#404142"></path></svg>