<svg id="visual" viewBox="0 0 960 300" width="960" height="300" xmlns="http://www.w3.org/2000/svg" xmlns:xlink="http://www.w3.org/1999/xlink" version="1.1"><rect x="0" y="0" width="960" height="300" fill="#ff9900"></rect><path d="M0 92L22.8 90C45.7 88 91.3 84 137 81.2C182.7 78.3 228.3 76.7 274 80.5C319.7 84.3 365.3 93.7 411.2 101.7C457 109.7 503 116.3 548.8 117.3C594.7 118.3 640.3 113.7 686 106.7C731.7 99.7 777.3 90.3 823 86.5C868.7 82.7 914.3 84.3 937.2 85.2L960 86L960 0L937.2 0C914.3 0 868.7 0 823 0C777.3 0 731.7 0 686 0C640.3 0 594.7 0 548.8 0C503 0 457 0 411.2 0C365.3 0 319.7 0 274 0C228.3 0 182.7 0 137 0C91.3 0 45.7 0 22.8 0L0 0Z" fill="#ffffff"></path><path d="M0 102L22.8 100.7C45.7 99.3 91.3 96.7 137 96.3C182.7 96 228.3 98 274 93.2C319.7 88.3 365.3 76.7 411.2 70C457 63.3 503 61.7 548.8 64.2C594.7 66.7 640.3 73.3 686 78.7C731.7 84 777.3 88 823 84.5C868.7 81 914.3 70 937.2 64.5L960 59L960 0L937.2 0C914.3 0 868.7 0 823 0C777.3 0 731.7 0 686 0C640.3 0 594.7 0 548.8 0C503 0 457 0 411.2 0C365.3 0 319.7 0 274 0C228.3 0 182.7 0 137 0C91.3 0 45.7 0 22.8 0L0 0Z" fill="#dfdfdf"></path><path d="M0 49L22.8 52.7C45.7 56.3 91.3 63.7 137 67.7C182.7 71.7 228.3 72.3 274 73.3C319.7 74.3 365.3 75.7 411.2 75.7C457 75.7 503 74.3 548.8 74.2C594.7 74 640.3 75 686 74.8C731.7 74.7 777.3 73.3 823 71.8C868.7 70.3 914.3 68.7 937.2 67.8L960 67L960 0L937.2 0C914.3 0 868.7 0 823 0C777.3 0 731.7 0 686 0C640.3 0 594.7 0 548.8 0C503 0 457 0 411.2 0C365.3 0 319.7 0 274 0C228.3 0 182.7 0 137 0C91.3 0 45.7 0 22.8 0L0 0Z" fill="#cccccc"></path><path d="M0 28L22.8 28.7C45.7 29.3 91.3 30.7 137 34.7C182.7 38.7 228.3 45.3 274 44.7C319.7 44 365.3 36 411.2 32.8C457 29.7 503 31.3 548.8 34.5C594.7 37.7 640.3 42.3 686 41.7C731.7 41 777.3 35 823 33.5C868.7 32 914.3 35 937.2 36.5L960 38L960 0L937.2 0C914.3 0 868.7 0 823 0C777.3 0 731.7 0 686 0C640.3 0 594.7 0 548.8 0C503 0 457 0 411.2 0C365.3 0 319.7 0 274 0C228.3 0 182.7 0 137 0C91.3 0 45.7 0 22.8 0L0 0Z" fill="#dfdfdf"></path><path d="M0 13L22.8 16C45.7 19 91.3 25 137 28.8C182.7 32.7 228.3 34.3 274 31.2C319.7 28 365.3 20 411.2 16.8C457 13.7 503 15.3 548.8 16.8C594.7 18.3 640.3 19.7 686 19.5C731.7 19.3 777.3 17.7 823 18.2C868.7 18.7 914.3 21.3 937.2 22.7L960 24L960 0L937.2 0C914.3 0 868.7 0 823 0C777.3 0 731.7 0 686 0C640.3 0 594.7 0 548.8 0C503 0 457 0 411.2 0C365.3 0 319.7 0 274 0C228.3 0 182.7 0 137 0C91.3 0 45.7 0 22.8 0L0 0Z" fill="#ffffff"></path></svg>