<svg id="visual" viewBox="0 0 960 300" width="960" height="300" xmlns="http://www.w3.org/2000/svg" xmlns:xlink="http://www.w3.org/1999/xlink" version="1.1"><rect x="0" y="0" width="960" height="300" fill="#FFA319"></rect><path d="M0 34L10 36.8C20 39.7 40 45.3 60 50C80 54.7 100 58.3 120 56.5C140 54.7 160 47.3 180 44.7C200 42 220 44 240 43C260 42 280 38 300 39.7C320 41.3 340 48.7 360 52.5C380 56.3 400 56.7 420 58C440 59.3 460 61.7 480 58.3C500 55 520 46 540 41.3C560 36.7 580 36.3 600 36.5C620 36.7 640 37.3 660 38.3C680 39.3 700 40.7 720 39.8C740 39 760 36 780 39.3C800 42.7 820 52.3 840 55.7C860 59 880 56 900 54.2C920 52.3 940 51.7 950 51.3L960 51L960 0L950 0C940 0 920 0 900 0C880 0 860 0 840 0C820 0 800 0 780 0C760 0 740 0 720 0C700 0 680 0 660 0C640 0 620 0 600 0C580 0 560 0 540 0C520 0 500 0 480 0C460 0 440 0 420 0C400 0 380 0 360 0C340 0 320 0 300 0C280 0 260 0 240 0C220 0 200 0 180 0C160 0 140 0 120 0C100 0 80 0 60 0C40 0 20 0 10 0L0 0Z" fill="#dbdee6"></path><path d="M0 31L10 34.8C20 38.7 40 46.3 60 47.8C80 49.3 100 44.7 120 41.5C140 38.3 160 36.7 180 36C200 35.3 220 35.7 240 38.7C260 41.7 280 47.3 300 47.3C320 47.3 340 41.7 360 38.7C380 35.7 400 35.3 420 34.8C440 34.3 460 33.7 480 35C500 36.3 520 39.7 540 43C560 46.3 580 49.7 600 50.7C620 51.7 640 50.3 660 48.2C680 46 700 43 720 40.7C740 38.3 760 36.7 780 36.8C800 37 820 39 840 42C860 45 880 49 900 50.3C920 51.7 940 50.3 950 49.7L960 49L960 0L950 0C940 0 920 0 900 0C880 0 860 0 840 0C820 0 800 0 780 0C760 0 740 0 720 0C700 0 680 0 660 0C640 0 620 0 600 0C580 0 560 0 540 0C520 0 500 0 480 0C460 0 440 0 420 0C400 0 380 0 360 0C340 0 320 0 300 0C280 0 260 0 240 0C220 0 200 0 180 0C160 0 140 0 120 0C100 0 80 0 60 0C40 0 20 0 10 0L0 0Z" fill="#e0e3e9"></path><path d="M0 42L10 41.8C20 41.7 40 41.3 60 38.8C80 36.3 100 31.7 120 32C140 32.3 160 37.7 180 38.7C200 39.7 220 36.3 240 36.3C260 36.3 280 39.7 300 40.2C320 40.7 340 38.3 360 37C380 35.7 400 35.3 420 35.8C440 36.3 460 37.7 480 37.5C500 37.3 520 35.7 540 34.8C560 34 580 34 600 36.5C620 39 640 44 660 44.2C680 44.3 700 39.7 720 39.3C740 39 760 43 780 45.2C800 47.3 820 47.7 840 45.7C860 43.7 880 39.3 900 35.3C920 31.3 940 27.7 950 25.8L960 24L960 0L950 0C940 0 920 0 900 0C880 0 860 0 840 0C820 0 800 0 780 0C760 0 740 0 720 0C700 0 680 0 660 0C640 0 620 0 600 0C580 0 560 0 540 0C520 0 500 0 480 0C460 0 440 0 420 0C400 0 380 0 360 0C340 0 320 0 300 0C280 0 260 0 240 0C220 0 200 0 180 0C160 0 140 0 120 0C100 0 80 0 60 0C40 0 20 0 10 0L0 0Z" fill="#e5e7ed"></path><path d="M0 41L10 39.3C20 37.7 40 34.3 60 31.2C80 28 100 25 120 25.7C140 26.3 160 30.7 180 31.2C200 31.7 220 28.3 240 29.5C260 30.7 280 36.3 300 36.5C320 36.7 340 31.3 360 28C380 24.7 400 23.3 420 24.2C440 25 460 28 480 29C500 30 520 29 540 30.5C560 32 580 36 600 35.5C620 35 640 30 660 29.2C680 28.3 700 31.7 720 33.3C740 35 760 35 780 32.7C800 30.3 820 25.7 840 23.3C860 21 880 21 900 23.8C920 26.7 940 32.3 950 35.2L960 38L960 0L950 0C940 0 920 0 900 0C880 0 860 0 840 0C820 0 800 0 780 0C760 0 740 0 720 0C700 0 680 0 660 0C640 0 620 0 600 0C580 0 560 0 540 0C520 0 500 0 480 0C460 0 440 0 420 0C400 0 380 0 360 0C340 0 320 0 300 0C280 0 260 0 240 0C220 0 200 0 180 0C160 0 140 0 120 0C100 0 80 0 60 0C40 0 20 0 10 0L0 0Z" fill="#eaecf0"></path><path d="M0 18L10 18.7C20 19.3 40 20.7 60 21.5C80 22.3 100 22.7 120 24.5C140 26.3 160 29.7 180 31.3C200 33 220 33 240 30.3C260 27.7 280 22.3 300 20.2C320 18 340 19 360 20.2C380 21.3 400 22.7 420 23.7C440 24.7 460 25.3 480 25.3C500 25.3 520 24.7 540 25C560 25.3 580 26.7 600 25.5C620 24.3 640 20.7 660 19.7C680 18.7 700 20.3 720 20.8C740 21.3 760 20.7 780 19.8C800 19 820 18 840 19.2C860 20.3 880 23.7 900 24.5C920 25.3 940 23.7 950 22.8L960 22L960 0L950 0C940 0 920 0 900 0C880 0 860 0 840 0C820 0 800 0 780 0C760 0 740 0 720 0C700 0 680 0 660 0C640 0 620 0 600 0C580 0 560 0 540 0C520 0 500 0 480 0C460 0 440 0 420 0C400 0 380 0 360 0C340 0 320 0 300 0C280 0 260 0 240 0C220 0 200 0 180 0C160 0 140 0 120 0C100 0 80 0 60 0C40 0 20 0 10 0L0 0Z" fill="#f0f0f4"></path><path d="M0 17L10 17.5C20 18 40 19 60 18.8C80 18.7 100 17.3 120 18.3C140 19.3 160 22.7 180 24.2C200 25.7 220 25.3 240 24.3C260 23.3 280 21.7 300 21.2C320 20.7 340 21.3 360 20.5C380 19.7 400 17.3 420 16.5C440 15.7 460 16.3 480 17.3C500 18.3 520 19.7 540 20.7C560 21.7 580 22.3 600 22C620 21.7 640 20.3 660 20C680 19.7 700 20.3 720 20.5C740 20.7 760 20.3 780 20.2C800 20 820 20 840 19.8C860 19.7 880 19.3 900 19.7C920 20 940 21 950 21.5L960 22L960 0L950 0C940 0 920 0 900 0C880 0 860 0 840 0C820 0 800 0 780 0C760 0 740 0 720 0C700 0 680 0 660 0C640 0 620 0 600 0C580 0 560 0 540 0C520 0 500 0 480 0C460 0 440 0 420 0C400 0 380 0 360 0C340 0 320 0 300 0C280 0 260 0 240 0C220 0 200 0 180 0C160 0 140 0 120 0C100 0 80 0 60 0C40 0 20 0 10 0L0 0Z" fill="#f5f5f8"></path><path d="M0 11L10 11.8C20 12.7 40 14.3 60 15.7C80 17 100 18 120 17.3C140 16.7 160 14.3 180 14.3C200 14.3 220 16.7 240 17.8C260 19 280 19 300 18.3C320 17.7 340 16.3 360 15.2C380 14 400 13 420 13.3C440 13.7 460 15.3 480 15.3C500 15.3 520 13.7 540 14.2C560 14.7 580 17.3 600 18.2C620 19 640 18 660 16.5C680 15 700 13 720 11.8C740 10.7 760 10.3 780 10.7C800 11 820 12 840 13.7C860 15.3 880 17.7 900 17.2C920 16.7 940 13.3 950 11.7L960 10L960 0L950 0C940 0 920 0 900 0C880 0 860 0 840 0C820 0 800 0 780 0C760 0 740 0 720 0C700 0 680 0 660 0C640 0 620 0 600 0C580 0 560 0 540 0C520 0 500 0 480 0C460 0 440 0 420 0C400 0 380 0 360 0C340 0 320 0 300 0C280 0 260 0 240 0C220 0 200 0 180 0C160 0 140 0 120 0C100 0 80 0 60 0C40 0 20 0 10 0L0 0Z" fill="#fafafb"></path><path d="M0 9L10 8.8C20 8.7 40 8.3 60 8.3C80 8.3 100 8.7 120 9C140 9.3 160 9.7 180 9.3C200 9 220 8 240 8C260 8 280 9 300 9.8C320 10.7 340 11.3 360 11.8C380 12.3 400 12.7 420 11.7C440 10.7 460 8.3 480 7.2C500 6 520 6 540 6C560 6 580 6 600 6.5C620 7 640 8 660 8C680 8 700 7 720 6.5C740 6 760 6 780 6.8C800 7.7 820 9.3 840 10C860 10.7 880 10.3 900 9.7C920 9 940 8 950 7.5L960 7L960 0L950 0C940 0 920 0 900 0C880 0 860 0 840 0C820 0 800 0 780 0C760 0 740 0 720 0C700 0 680 0 660 0C640 0 620 0 600 0C580 0 560 0 540 0C520 0 500 0 480 0C460 0 440 0 420 0C400 0 380 0 360 0C340 0 320 0 300 0C280 0 260 0 240 0C220 0 200 0 180 0C160 0 140 0 120 0C100 0 80 0 60 0C40 0 20 0 10 0L0 0Z" fill="#ffffff"></path></svg>