<svg id="visual" viewBox="0 0 960 300" width="960" height="300" xmlns="http://www.w3.org/2000/svg" xmlns:xlink="http://www.w3.org/1999/xlink" version="1.1"><path d="M0 111L9.3 111C18.7 111 37.3 111 56.2 112C75 113 94 115 112.8 113.8C131.7 112.7 150.3 108.3 169.2 107C188 105.7 207 107.3 225.8 107.5C244.7 107.7 263.3 106.3 282.2 107.2C301 108 320 111 338.8 110C357.7 109 376.3 104 395.2 102.8C414 101.7 433 104.3 451.8 106.2C470.7 108 489.3 109 508.2 107C527 105 546 100 564.8 98.8C583.7 97.7 602.3 100.3 621.2 102.2C640 104 659 105 677.8 107.5C696.7 110 715.3 114 734.2 116.2C753 118.3 772 118.7 790.8 115C809.7 111.3 828.3 103.7 847.2 99.5C866 95.3 885 94.7 903.8 95C922.7 95.3 941.3 96.7 950.7 97.3L960 98L960 0L950.7 0C941.3 0 922.7 0 903.8 0C885 0 866 0 847.2 0C828.3 0 809.7 0 790.8 0C772 0 753 0 734.2 0C715.3 0 696.7 0 677.8 0C659 0 640 0 621.2 0C602.3 0 583.7 0 564.8 0C546 0 527 0 508.2 0C489.3 0 470.7 0 451.8 0C433 0 414 0 395.2 0C376.3 0 357.7 0 338.8 0C320 0 301 0 282.2 0C263.3 0 244.7 0 225.8 0C207 0 188 0 169.2 0C150.3 0 131.7 0 112.8 0C94 0 75 0 56.2 0C37.3 0 18.7 0 9.3 0L0 0Z" fill="#5c5c5c"></path><path d="M0 78L9.3 79.7C18.7 81.3 37.3 84.7 56.2 87.7C75 90.7 94 93.3 112.8 93.5C131.7 93.7 150.3 91.3 169.2 90.5C188 89.7 207 90.3 225.8 92C244.7 93.7 263.3 96.3 282.2 97.2C301 98 320 97 338.8 94.5C357.7 92 376.3 88 395.2 86.7C414 85.3 433 86.7 451.8 87.5C470.7 88.3 489.3 88.7 508.2 87C527 85.3 546 81.7 564.8 81C583.7 80.3 602.3 82.7 621.2 83.3C640 84 659 83 677.8 84.2C696.7 85.3 715.3 88.7 734.2 89.7C753 90.7 772 89.3 790.8 88.2C809.7 87 828.3 86 847.2 87.8C866 89.7 885 94.3 903.8 95.3C922.7 96.3 941.3 93.7 950.7 92.3L960 91L960 0L950.7 0C941.3 0 922.7 0 903.8 0C885 0 866 0 847.2 0C828.3 0 809.7 0 790.8 0C772 0 753 0 734.2 0C715.3 0 696.7 0 677.8 0C659 0 640 0 621.2 0C602.3 0 583.7 0 564.8 0C546 0 527 0 508.2 0C489.3 0 470.7 0 451.8 0C433 0 414 0 395.2 0C376.3 0 357.7 0 338.8 0C320 0 301 0 282.2 0C263.3 0 244.7 0 225.8 0C207 0 188 0 169.2 0C150.3 0 131.7 0 112.8 0C94 0 75 0 56.2 0C37.3 0 18.7 0 9.3 0L0 0Z" fill="#7a7a7a"></path><path d="M0 63L9.3 66C18.7 69 37.3 75 56.2 76C75 77 94 73 112.8 71.2C131.7 69.3 150.3 69.7 169.2 70.2C188 70.7 207 71.3 225.8 72.5C244.7 73.7 263.3 75.3 282.2 74C301 72.7 320 68.3 338.8 67.2C357.7 66 376.3 68 395.2 70.2C414 72.3 433 74.7 451.8 75.2C470.7 75.7 489.3 74.3 508.2 73.2C527 72 546 71 564.8 69.7C583.7 68.3 602.3 66.7 621.2 66.2C640 65.7 659 66.3 677.8 68C696.7 69.7 715.3 72.3 734.2 73.5C753 74.7 772 74.3 790.8 73.3C809.7 72.3 828.3 70.7 847.2 69.2C866 67.7 885 66.3 903.8 67.3C922.7 68.3 941.3 71.7 950.7 73.3L960 75L960 0L950.7 0C941.3 0 922.7 0 903.8 0C885 0 866 0 847.2 0C828.3 0 809.7 0 790.8 0C772 0 753 0 734.2 0C715.3 0 696.7 0 677.8 0C659 0 640 0 621.2 0C602.3 0 583.7 0 564.8 0C546 0 527 0 508.2 0C489.3 0 470.7 0 451.8 0C433 0 414 0 395.2 0C376.3 0 357.7 0 338.8 0C320 0 301 0 282.2 0C263.3 0 244.7 0 225.8 0C207 0 188 0 169.2 0C150.3 0 131.7 0 112.8 0C94 0 75 0 56.2 0C37.3 0 18.7 0 9.3 0L0 0Z" fill="#9a9a9a"></path><path d="M0 52L9.3 53.8C18.7 55.7 37.3 59.3 56.2 60.7C75 62 94 61 112.8 59C131.7 57 150.3 54 169.2 54.2C188 54.3 207 57.7 225.8 56.8C244.7 56 263.3 51 282.2 51.3C301 51.7 320 57.3 338.8 57.3C357.7 57.3 376.3 51.7 395.2 50.8C414 50 433 54 451.8 54C470.7 54 489.3 50 508.2 48.8C527 47.7 546 49.3 564.8 49.3C583.7 49.3 602.3 47.7 621.2 47.7C640 47.7 659 49.3 677.8 51.8C696.7 54.3 715.3 57.7 734.2 57.7C753 57.7 772 54.3 790.8 52.2C809.7 50 828.3 49 847.2 48.3C866 47.7 885 47.3 903.8 48.2C922.7 49 941.3 51 950.7 52L960 53L960 0L950.7 0C941.3 0 922.7 0 903.8 0C885 0 866 0 847.2 0C828.3 0 809.7 0 790.8 0C772 0 753 0 734.2 0C715.3 0 696.7 0 677.8 0C659 0 640 0 621.2 0C602.3 0 583.7 0 564.8 0C546 0 527 0 508.2 0C489.3 0 470.7 0 451.8 0C433 0 414 0 395.2 0C376.3 0 357.7 0 338.8 0C320 0 301 0 282.2 0C263.3 0 244.7 0 225.8 0C207 0 188 0 169.2 0C150.3 0 131.7 0 112.8 0C94 0 75 0 56.2 0C37.3 0 18.7 0 9.3 0L0 0Z" fill="#bababa"></path><path d="M0 41L9.3 41.3C18.7 41.7 37.3 42.3 56.2 41.2C75 40 94 37 112.8 37.3C131.7 37.7 150.3 41.3 169.2 41.7C188 42 207 39 225.8 37.2C244.7 35.3 263.3 34.7 282.2 35.5C301 36.3 320 38.7 338.8 39.2C357.7 39.7 376.3 38.3 395.2 38.2C414 38 433 39 451.8 39.5C470.7 40 489.3 40 508.2 38.8C527 37.7 546 35.3 564.8 33.8C583.7 32.3 602.3 31.7 621.2 33.3C640 35 659 39 677.8 38.8C696.7 38.7 715.3 34.3 734.2 32.8C753 31.3 772 32.7 790.8 34C809.7 35.3 828.3 36.7 847.2 36.3C866 36 885 34 903.8 33.2C922.7 32.3 941.3 32.7 950.7 32.8L960 33L960 0L950.7 0C941.3 0 922.7 0 903.8 0C885 0 866 0 847.2 0C828.3 0 809.7 0 790.8 0C772 0 753 0 734.2 0C715.3 0 696.7 0 677.8 0C659 0 640 0 621.2 0C602.3 0 583.7 0 564.8 0C546 0 527 0 508.2 0C489.3 0 470.7 0 451.8 0C433 0 414 0 395.2 0C376.3 0 357.7 0 338.8 0C320 0 301 0 282.2 0C263.3 0 244.7 0 225.8 0C207 0 188 0 169.2 0C150.3 0 131.7 0 112.8 0C94 0 75 0 56.2 0C37.3 0 18.7 0 9.3 0L0 0Z" fill="#dcdcdc"></path><path d="M0 18L9.3 18C18.7 18 37.3 18 56.2 17.5C75 17 94 16 112.8 16.8C131.7 17.7 150.3 20.3 169.2 21.3C188 22.3 207 21.7 225.8 20.5C244.7 19.3 263.3 17.7 282.2 17.3C301 17 320 18 338.8 19.7C357.7 21.3 376.3 23.7 395.2 24.8C414 26 433 26 451.8 26.2C470.7 26.3 489.3 26.7 508.2 25.2C527 23.7 546 20.3 564.8 19C583.7 17.7 602.3 18.3 621.2 19.3C640 20.3 659 21.7 677.8 21.8C696.7 22 715.3 21 734.2 19.7C753 18.3 772 16.7 790.8 17.2C809.7 17.7 828.3 20.3 847.2 21.7C866 23 885 23 903.8 21.7C922.7 20.3 941.3 17.7 950.7 16.3L960 15L960 0L950.7 0C941.3 0 922.7 0 903.8 0C885 0 866 0 847.2 0C828.3 0 809.7 0 790.8 0C772 0 753 0 734.2 0C715.3 0 696.7 0 677.8 0C659 0 640 0 621.2 0C602.3 0 583.7 0 564.8 0C546 0 527 0 508.2 0C489.3 0 470.7 0 451.8 0C433 0 414 0 395.2 0C376.3 0 357.7 0 338.8 0C320 0 301 0 282.2 0C263.3 0 244.7 0 225.8 0C207 0 188 0 169.2 0C150.3 0 131.7 0 112.8 0C94 0 75 0 56.2 0C37.3 0 18.7 0 9.3 0L0 0Z" fill="#ffffff"></path></svg>