<svg id="visual" viewBox="0 0 960 300" width="960" height="300" xmlns="http://www.w3.org/2000/svg" xmlns:xlink="http://www.w3.org/1999/xlink" version="1.1"><path d="M0 223L22.8 215.5C45.7 208 91.3 193 137 186.3C182.7 179.7 228.3 181.3 274 186.3C319.7 191.3 365.3 199.7 411.2 200.8C457 202 503 196 548.8 190.3C594.7 184.7 640.3 179.3 686 182.3C731.7 185.3 777.3 196.7 823 200.3C868.7 204 914.3 200 937.2 198L960 196L960 301L937.2 301C914.3 301 868.7 301 823 301C777.3 301 731.7 301 686 301C640.3 301 594.7 301 548.8 301C503 301 457 301 411.2 301C365.3 301 319.7 301 274 301C228.3 301 182.7 301 137 301C91.3 301 45.7 301 22.8 301L0 301Z" fill="#414042"></path><path d="M0 220L22.8 217.8C45.7 215.7 91.3 211.3 137 212.8C182.7 214.3 228.3 221.7 274 220.7C319.7 219.7 365.3 210.3 411.2 212C457 213.7 503 226.3 548.8 231.8C594.7 237.3 640.3 235.7 686 232.8C731.7 230 777.3 226 823 219.8C868.7 213.7 914.3 205.3 937.2 201.2L960 197L960 301L937.2 301C914.3 301 868.7 301 823 301C777.3 301 731.7 301 686 301C640.3 301 594.7 301 548.8 301C503 301 457 301 411.2 301C365.3 301 319.7 301 274 301C228.3 301 182.7 301 137 301C91.3 301 45.7 301 22.8 301L0 301Z" fill="#765168"></path><path d="M0 249L22.8 246.7C45.7 244.3 91.3 239.7 137 236.8C182.7 234 228.3 233 274 233.3C319.7 233.7 365.3 235.3 411.2 236.5C457 237.7 503 238.3 548.8 238.2C594.7 238 640.3 237 686 236C731.7 235 777.3 234 823 232.2C868.7 230.3 914.3 227.7 937.2 226.3L960 225L960 301L937.2 301C914.3 301 868.7 301 823 301C777.3 301 731.7 301 686 301C640.3 301 594.7 301 548.8 301C503 301 457 301 411.2 301C365.3 301 319.7 301 274 301C228.3 301 182.7 301 137 301C91.3 301 45.7 301 22.8 301L0 301Z" fill="#ba5c6f"></path><path d="M0 251L22.8 250C45.7 249 91.3 247 137 249.8C182.7 252.7 228.3 260.3 274 263.2C319.7 266 365.3 264 411.2 262.8C457 261.7 503 261.3 548.8 261C594.7 260.7 640.3 260.3 686 259.2C731.7 258 777.3 256 823 254.2C868.7 252.3 914.3 250.7 937.2 249.8L960 249L960 301L937.2 301C914.3 301 868.7 301 823 301C777.3 301 731.7 301 686 301C640.3 301 594.7 301 548.8 301C503 301 457 301 411.2 301C365.3 301 319.7 301 274 301C228.3 301 182.7 301 137 301C91.3 301 45.7 301 22.8 301L0 301Z" fill="#ef7355"></path><path d="M0 272L22.8 270.8C45.7 269.7 91.3 267.3 137 268.8C182.7 270.3 228.3 275.7 274 276.2C319.7 276.7 365.3 272.3 411.2 270C457 267.7 503 267.3 548.8 266.8C594.7 266.3 640.3 265.7 686 267.3C731.7 269 777.3 273 823 275.3C868.7 277.7 914.3 278.3 937.2 278.7L960 279L960 301L937.2 301C914.3 301 868.7 301 823 301C777.3 301 731.7 301 686 301C640.3 301 594.7 301 548.8 301C503 301 457 301 411.2 301C365.3 301 319.7 301 274 301C228.3 301 182.7 301 137 301C91.3 301 45.7 301 22.8 301L0 301Z" fill="#ffa319"></path></svg>